<svg width="205" height="73" viewBox="0 0 205 73" fill="none" xmlns="http://www.w3.org/2000/svg">
<path d="M14.2148 0.90625V72H0.787109V0.90625H14.2148ZM42.877 31.6191V42.2148H10.6992V31.6191H42.877ZM46.6367 0.90625V11.502H10.6992V0.90625H46.6367ZM69.1953 0.90625V72H55.7676V0.90625H69.1953ZM111.871 0.90625L83.3555 35.5742L67.0469 53.0059L64.6543 39.9688L75.9824 25.2715L95.416 0.90625H111.871ZM96.9297 72L74.8105 38.6992L84.4297 30.0078L112.896 72H96.9297ZM176.275 0.90625V72H162.799L132.574 22.6836V72H119.146V0.90625H132.574L162.896 50.2715V0.90625H176.275ZM189.508 65.7012C189.508 63.748 190.175 62.1042 191.51 60.7695C192.844 59.4349 194.651 58.7676 196.93 58.7676C199.208 58.7676 201.015 59.4349 202.35 60.7695C203.684 62.1042 204.352 63.748 204.352 65.7012C204.352 67.6217 203.684 69.2493 202.35 70.584C201.015 71.8861 199.208 72.5371 196.93 72.5371C194.651 72.5371 192.844 71.8861 191.51 70.584C190.175 69.2493 189.508 67.6217 189.508 65.7012Z" fill="white"/>
</svg>
